<?xml version="1.0" encoding="UTF-8"?>
<svg width="154px" height="35px" viewBox="0 0 154 35" version="1.1" xmlns="http://www.w3.org/2000/svg" xmlns:xlink="http://www.w3.org/1999/xlink">
    <title>okayplus</title>
    <g id="Symbols" stroke="none" stroke-width="1" fill="none" fill-rule="evenodd">
        <g id="Header" transform="translate(-91, -45)" fill="#E6193C" fill-rule="nonzero">
            <g id="okayplus" transform="translate(91.872, 45.54)">
                <path d="M10.1880017,7.74000127 C4.66200076,7.74000127 0,12.5280021 0,19.0800031 C0,23.5800039 3.20400053,26.8200044 7.84800129,26.8200044 C13.3200022,26.8200044 18.054003,23.0400038 18.054003,15.8220026 C18.054003,10.6380017 14.4000024,7.74000127 10.1880017,7.74000127 Z M9.84600161,10.9980018 C10.8540018,10.9980018 11.7720019,12.492002 11.7720019,15.3000025 C11.7720019,19.6200032 10.4400017,22.9500038 8.47800139,22.9500038 C7.43400122,22.9500038 6.48000106,21.9060036 6.48000106,19.2780032 C6.48000106,14.7060024 8.13600133,10.9980018 9.84600161,10.9980018 Z" id="Shape"></path>
                <path d="M28.9860015,0 C28.32,0 26.8260012,0.288000047 24.5940008,1.13400019 C22.5060005,1.90800031 21.6780004,2.4480004 21.6780004,3.52800058 C21.6780004,3.96000065 22.0920004,4.2480007 22.3800005,4.48200073 C22.7400005,4.69800077 23.1540006,5.25600086 23.1540006,6.15600101 C23.1540006,8.22600135 21.0660003,18.342003 20.3460001,21.3480035 C19.8420001,23.3820038 19.32,24.7140041 19.32,25.5060042 C19.32,26.1000043 19.5,26.6580044 20.7780002,26.6580044 C22.7400005,26.6580044 24.9000009,26.2980043 25.584001,25.8480042 C26.3220011,25.3800042 26.5920012,24.498004 26.5920012,23.5440039 C26.5920012,22.8240037 26.6640012,21.1140035 26.8080012,20.1600033 C27.4380013,16.2540027 29.5800016,12.8520021 31.3620019,12.8520021 C32.0640021,12.8520021 32.4060021,13.3200022 32.4060021,14.0580023 C32.4060021,15.5880026 30.2820018,16.7760027 28.7160015,17.6040029 C28.1760014,17.9100029 28.0140014,18.324003 28.0140014,18.8280031 C28.0140014,21.6000035 30.4080018,26.8920044 34.5480025,26.8920044 C38.1840031,26.8920044 39.8760033,23.4360038 39.8760033,21.4380035 C39.8760033,20.8440034 39.6420033,20.5560034 39.4080033,20.5560034 C38.8500032,20.5560034 38.3100031,21.8340036 37.1760029,21.8340036 C35.3760026,21.8340036 33.6660023,18.108003 33.6660023,17.3340028 C33.6660023,16.8480028 39.1380032,15.5880026 39.1380032,11.3760019 C39.1380032,9.21600151 37.806003,7.74000127 35.4300026,7.74000127 C30.9840019,7.74000127 28.3380014,12.8700021 27.9780014,12.8700021 C27.9240014,12.8700021 27.8340014,12.8340021 27.8340014,12.5460021 C27.8340014,11.6640019 30.1200017,2.64600043 30.1200017,1.04400017 C30.1200017,0.522000086 29.8140017,0 28.9860015,0 Z" id="Path"></path>
                <path d="M50.1960015,7.74000127 C45.6780007,7.74000127 41.286,12.5460021 41.286,19.8720033 C41.286,24.354004 43.4280004,26.8200044 46.5240009,26.8200044 C48.9000012,26.8200044 50.3940015,25.5960042 51.6900017,24.156004 C51.9600017,23.8680039 52.0860018,23.7060039 52.2300018,23.7060039 C52.3920018,23.7060039 52.4640018,23.9940039 52.5900019,24.336004 C52.8780019,25.4700042 54.0300021,26.8020044 55.8300024,26.8020044 C59.1600029,26.8020044 60.9600032,23.8860039 60.9600032,22.1580036 C60.9600032,21.5460035 60.7260032,21.3840035 60.5280032,21.3840035 C60.0240031,21.3840035 59.772003,22.3920037 59.0340029,22.3920037 C58.5480028,22.3920037 58.2600028,21.8520036 58.2600028,20.9340034 C58.2600028,19.1520031 59.0340029,15.3540025 59.628003,12.5640021 C59.9700031,10.9980018 60.4200031,9.70200159 60.4200031,9.36000153 C60.4200031,8.71200143 60.1500031,8.20800135 59.538003,8.20800135 C58.2420028,8.20800135 55.6680024,10.8180018 55.2720023,10.8180018 C54.8220022,10.8180018 53.8140021,7.74000127 50.1960015,7.74000127 Z M51.4560017,11.1240018 C52.3560018,11.1240018 53.184002,12.060002 53.184002,14.6340024 C53.184002,19.3680032 51.5460017,22.4280037 49.9080014,22.4280037 C48.7200012,22.4280037 47.9280011,21.3300035 47.9280011,18.7560031 C47.9280011,14.5620024 49.6740014,11.1240018 51.4560017,11.1240018 Z" id="Shape"></path>
                <path d="M70.6320013,7.74000127 C69.8220012,7.74000127 67.4640008,8.15400134 65.6100005,8.85600145 C63.9360002,9.50400156 63.1440001,10.0980017 63.1440001,11.0340018 C63.1440001,11.6280019 63.3780001,11.8260019 63.9360002,12.186002 C64.4040003,12.474002 64.8720004,12.8340021 64.8720004,13.7700023 C64.8720004,15.1920025 63.5220001,18.054003 63.5220001,21.0600035 C63.5220001,25.5960042 66.4560006,26.5860044 68.868001,26.5860044 C71.5500015,26.5860044 73.2240017,24.462004 73.6020018,24.462004 C73.7100018,24.462004 73.7820018,24.534004 73.7820018,24.624004 C73.7820018,25.4340042 71.9280015,29.6280049 68.1660009,29.6280049 C67.1400007,29.6280049 66.2580006,29.2140048 65.5560005,28.2240046 C65.1780004,27.7020045 64.9800004,27.3060045 64.4400003,27.3060045 C63.2700001,27.3060045 62.0459999,28.5300047 62.0459999,30.402005 C62.0459999,32.7420054 64.2780003,34.3620056 66.8880007,34.3620056 C71.6580015,34.3620056 75.2400021,30.2400013 77.6880025,25.0920041 C79.5780028,21.0780035 81.162003,15.6060026 81.162003,12.222002 C81.162003,9.97200163 80.4600029,7.74000127 77.8680025,7.74000127 C75.7440021,7.74000127 73.9260018,9.30600153 73.9260018,11.0160018 C73.9260018,11.7000019 74.3400019,11.970002 74.826002,12.420002 C75.2760021,12.8340021 75.7080021,13.8600023 75.7080021,14.9940025 C75.7080021,18.324003 73.5300018,22.5540037 71.2080014,22.5540037 C70.6140013,22.5540037 69.3360011,22.4460037 69.3360011,20.0700033 C69.3360011,16.5240027 71.8740015,10.4220017 71.8740015,8.91000146 C71.8740015,8.42400138 71.6580015,7.74000127 70.6320013,7.74000127 Z" id="Path"></path>
                <path d="M89.8620012,7.75800127 C89.1960011,7.75800127 88.2420009,8.02800132 86.2440006,8.87400145 C84.1920002,9.72000159 83.3460001,10.3500017 83.3460001,11.2500018 C83.3460001,11.7000019 83.7420002,11.988002 84.0300002,12.204002 C84.3720003,12.420002 84.7680003,12.7980021 84.7680003,13.9860023 C84.7680003,16.3620027 83.1840001,25.6680042 82.788,27.9180046 C82.644,28.8720047 82.446,29.9340049 81.4199998,31.0320051 C81.0239997,31.4460052 80.1599996,31.9680052 80.1599996,32.9760054 C80.1599996,33.4800055 80.4479996,33.9120056 81.2039997,33.9120056 C82.644,33.9120056 83.8320002,33.8040055 85.1640004,33.8040055 C86.1360006,33.8040055 88.2060009,33.9120056 89.2500011,33.9120056 C90.5280013,33.9120056 90.9420013,33.2820055 90.9420013,32.5620053 C90.9420013,31.7520052 90.2400012,31.4640052 89.7360011,30.9960051 C89.088001,30.366005 88.782001,29.9700049 88.782001,29.2320048 C88.782001,28.0800046 89.1960011,25.3440042 89.5380011,25.3440042 C89.7720012,25.3440042 90.6360013,26.8020044 92.9220017,26.8020044 C97.5120024,26.8020044 101.886003,22.0140036 101.886003,14.6700024 C101.886003,10.2060017 99.8880028,7.74000127 96.8460023,7.74000127 C94.4160019,7.74000127 92.7960016,9.1620015 91.4820014,10.6020017 C91.1400014,10.9980018 90.7800013,11.5920019 90.6360013,11.5920019 C90.5100013,11.5920019 90.4560013,11.5020019 90.4560013,11.3400019 C90.4560013,10.8720018 90.9240013,9.54000156 90.9240013,8.80200144 C90.9240013,8.28000136 90.6900013,7.75800127 89.8620012,7.75800127 Z M93.5160018,11.898002 C94.704002,11.898002 95.4780021,12.9600021 95.4780021,15.5340025 C95.4780021,19.7280032 93.7860018,23.2020038 91.9140015,23.2020038 C91.0320014,23.2020038 90.1500012,22.3200037 90.1500012,19.7460032 C90.1500012,15.0300025 91.8960015,11.898002 93.5160018,11.898002 Z" id="Shape"></path>
                <path d="M112.872002,0 C112.026001,0 109.920001,0.522000086 108.120001,1.2420002 C106.302,1.98000032 105.51,2.4300004 105.51,3.49200057 C105.51,3.94200065 105.816,4.17600068 106.122,4.39200072 C106.500001,4.62600076 106.968001,5.13000084 106.968001,6.15600101 C106.968001,8.82000145 104.124,17.3340028 104.124,21.9060036 C104.124,24.7680041 105.852,26.8020044 108.372001,26.8020044 C111.720001,26.8020044 113.268002,23.8860039 113.268002,22.1580036 C113.268002,21.5460035 113.034002,21.3840035 112.818002,21.3840035 C112.332001,21.3840035 112.080001,22.3920037 111.324001,22.3920037 C110.820001,22.3920037 110.298001,21.9060036 110.298001,20.5380034 C110.298001,16.3440027 113.988002,3.99600065 113.988002,1.04400017 C113.988002,0.30600005 113.502002,0 112.872002,0 Z" id="Path"></path>
                <path d="M123.192001,7.74000127 C122.382001,7.74000127 120.312001,8.24400135 118.620001,8.85600145 C116.892,9.50400156 115.758,9.95400163 115.758,11.1780018 C115.758,11.6460019 116.028,11.8800019 116.46,12.186002 C116.838,12.438002 117.18,12.9060021 117.18,13.6260022 C117.18,14.9220024 115.74,18.7200031 115.74,21.5640035 C115.74,24.642004 117.144,26.8200044 120.726001,26.8200044 C123.444001,26.8200044 125.262002,25.0740041 125.928002,24.282004 C126.270002,23.9040039 126.504002,23.6880039 126.612002,23.6880039 C126.810002,23.6880039 126.936002,24.174004 126.990002,24.336004 C127.458002,25.5960042 128.466002,26.8020044 130.500003,26.8020044 C133.902003,26.8020044 135.234003,23.9220039 135.234003,22.2480036 C135.234003,21.5460035 134.964003,21.3840035 134.766003,21.3840035 C134.262003,21.3840035 133.956003,22.3920037 133.236003,22.3920037 C132.354003,22.3920037 132.192003,21.0960035 132.192003,20.3400033 C132.192003,16.7760027 134.550003,10.9980018 134.550003,9.01800148 C134.550003,8.38800137 134.244003,7.9200013 133.434003,7.9200013 C132.768003,7.9200013 130.644003,8.04600132 129.114002,8.58600141 C127.620002,9.10800149 127.368002,9.61200158 127.368002,10.5840017 C127.368002,13.8420023 126.972002,16.5420027 126.414002,18.6660031 C125.856002,20.6820034 124.758002,22.3920037 123.426001,22.3920037 C122.526001,22.3920037 121.914001,21.6540035 121.914001,20.1600033 C121.914001,16.3800027 124.272002,10.4580017 124.272002,8.82000145 C124.272002,8.28000136 124.056002,7.74000127 123.192001,7.74000127 Z" id="Path"></path>
                <path d="M146.436002,7.66800126 C142.188001,7.66800126 138.39,10.0260016 138.39,13.9860023 C138.39,16.3800027 140.172001,17.7840029 142.008001,18.9900031 C143.610001,20.0520033 145.086001,20.8440034 145.086001,21.9600036 C145.086001,22.7700037 144.492001,23.4720038 143.340001,23.4720038 C141.342001,23.4720038 140.136001,21.5280035 139.326,20.4300033 C138.984,19.9980033 138.66,19.5300032 138.246,19.5300032 C137.202,19.5300032 136.59,20.7180034 136.59,22.2300036 C136.59,23.5260039 137.292,24.552004 137.688,24.9840041 C138.84,26.3700043 141.468001,26.9820044 143.214001,26.9820044 C148.272002,26.9820044 151.800002,24.480004 151.800002,20.5200034 C151.800002,17.8740029 149.802002,16.4160027 147.642002,15.1740025 C145.734001,14.0580023 144.222001,13.3200022 144.222001,12.204002 C144.222001,11.3940019 144.942001,10.6740017 145.968001,10.6740017 C147.714002,10.6740017 148.380002,11.988002 149.136002,12.9600021 C149.586002,13.5900022 150.036002,14.0940023 150.630002,14.0940023 C151.368002,14.0940023 152.196003,13.4280022 152.196003,11.5560019 C152.196003,10.8900018 151.980002,9.90000162 151.422002,9.23400151 C150.666002,8.26200135 148.614002,7.66800126 146.436002,7.66800126 Z" id="Path"></path>
            </g>
        </g>
    </g>
</svg>